<?xml version="1.0" encoding="utf-8"?>
<!-- Generator: Adobe Illustrator 16.0.0, SVG Export Plug-In . SVG Version: 6.00 Build 0)  -->
<!DOCTYPE svg PUBLIC "-//W3C//DTD SVG 1.1//EN" "http://www.w3.org/Graphics/SVG/1.1/DTD/svg11.dtd">
<svg version="1.1" id="Layer_1" xmlns="http://www.w3.org/2000/svg" xmlns:xlink="http://www.w3.org/1999/xlink" x="0px" y="0px"
	 width="32px" height="32px" viewBox="0 0 32 32" enable-background="new 0 0 32 32" xml:space="preserve">
<g id="Group_1605" transform="translate(-3872.561 -3862.294)">
	<g id="invisible_box">
		<rect id="Rectangle_273" x="3872.694" y="3862.427" fill="none" width="31.734" height="31.734"/>
	</g>
	<path id="Path_1239" fill="#000000" d="M3898.912,3877.897l-10.221-11.971l-10.465,11.954c-0.667,0.762-0.59,1.92,0.171,2.588
		c0.762,0.667,1.921,0.591,2.588-0.171l0,0l5.852-6.686v15.215c0.028,1.014,0.873,1.812,1.886,1.783
		c0.974-0.028,1.756-0.812,1.784-1.783v-15.122l5.613,6.575c0.686,0.746,1.848,0.793,2.594,0.105
		c0.705-0.648,0.79-1.733,0.196-2.486L3898.912,3877.897z"/>
</g>
</svg>
