<?xml version="1.0" encoding="utf-8"?>
<!-- Generator: Adobe Illustrator 16.0.0, SVG Export Plug-In . SVG Version: 6.00 Build 0)  -->
<!DOCTYPE svg PUBLIC "-//W3C//DTD SVG 1.1//EN" "http://www.w3.org/Graphics/SVG/1.1/DTD/svg11.dtd">
<svg version="1.1" id="Layer_1" xmlns="http://www.w3.org/2000/svg" xmlns:xlink="http://www.w3.org/1999/xlink" x="0px" y="0px"
	 width="32px" height="32px" viewBox="0 0 32 32" enable-background="new 0 0 32 32" xml:space="preserve">
<g id="Group_1605" transform="translate(4840.56 5112.294) rotate(180)">
	<g id="invisible_box">
		<rect id="Rectangle_273" x="4808.56" y="5080.294" fill="none" width="32" height="32"/>
	</g>
	<path id="Path_1239" fill="#000000" d="M4834.998,5095.894l-10.307-12.072l-10.553,12.055c-0.672,0.768-0.595,1.936,0.173,2.609
		c0.769,0.673,1.937,0.596,2.611-0.173l0,0l5.9-6.742v15.343c0.029,1.021,0.88,1.827,1.901,1.798
		c0.982-0.028,1.771-0.817,1.798-1.798v-15.249l5.66,6.63c0.692,0.752,1.863,0.8,2.615,0.107c0.711-0.655,0.798-1.747,0.199-2.507
		L4834.998,5095.894z"/>
</g>
</svg>
